<svg xmlns="http://www.w3.org/2000/svg" xmlns:xlink="http://www.w3.org/1999/xlink" x="0" y="0" baseProfile="basic" version="1.1" viewBox="0 0 40 40" xml:space="preserve"><g id="office"><path style="fill:#f78f8f" d="M20,31.441l-11.5,5.75V2.5h23v34.691L20,31.441z"/><path style="fill:#c74343" d="M31,3v33.382l-10.553-5.276L20,30.882l-0.447,0.224L9,36.382V3H31 M32,2H8v36l12-6l12,6V2L32,2z"/><path style="fill:#bae0bd" d="M31,26.5c-4.687,0-8.5-3.813-8.5-8.5s3.813-8.5,8.5-8.5s8.5,3.813,8.5,8.5S35.687,26.5,31,26.5z"/><path style="fill:#5e9c76" d="M31,10c4.411,0,8,3.589,8,8s-3.589,8-8,8s-8-3.589-8-8S26.589,10,31,10 M31,9c-4.971,0-9,4.029-9,9 s4.029,9,9,9s9-4.029,9-9S35.971,9,31,9L31,9z"/><polygon style="fill:#fff" points="32 23 30 23 30 19 26 19 26 17 30 17 30 13 32 13 32 17 36 17 36 19 32 19"/></g></svg>